PathFileType	4	(X/Y/Z)	C:/Users/beibeiliu/ov580/test_trc/User1\sequence.5_training_dense_right.trc
DataRate	CameraRate	NumFrames	NumMarkers	Units	OrigDataRate	OrigDataStartFrame	OrigNumFrames
120	120	25	19	mm	120	101	269
Frame#	Time	ThumbCMC			ThumbMCP			ThumbIP			ThumbTip			IndexMCP			IndexPIP			IndexTip			MiddleMCP			MiddlePIP			MiddleTip			RingMCP			RingPIP			RingTip			PinkyMCP			PinkyPIP			PinkyTip			BackHand1			BackHand2			BackHand3	
		X0	Y0	Z0	X1	Y1	Z1	X2	Y2	Z2	X3	Y3	Z3	X4	Y4	Z4	X5	Y5	Z5	X6	Y6	Z6	X7	Y7	Z7	X8	Y8	Z8	X9	Y9	Z9	X10	Y10	Z10	X11	Y11	Z11	X12	Y12	Z12	X13	Y13	Z13	X14	Y14	Z14	X15	Y15	Z15	X16	Y16	Z16	X17	Y17	Z17	X18	Y18	Z18	
100	0.833333	212.168	79.9838	32.6863	188.565	86.7716	1.72707	174.878	79.7685	-22.5678	160.919	61.2184	-40.0203	231.193	30.4881	-32.7345	233.915	18.5087	-56.5944	231.653	3.22587	-74.0778	197.628	23.061	-37.618	165.593	38.4618	-42.0777	157.469	56.8311	-11.3924	179.553	11.4193	-21.974	151.044	32.7703	-24.3259	142.39	53.9783	2.32197	169.802	0.540186	-1.8499	152.132	23.8631	-6.28403	155.542	49.1194	15.1739	215.722	11.2	29.2072	216.919	16.3544	64.3213	234.578	41.8963	36.227	
101	0.841667	213.27	77.6955	27.5357	187.183	80.6808	1.62102	171.713	77.0856	-25.1758	153.264	66.4542	-37.9811	224.588	27.3334	-38.4505	221.78	14.963	-57.8353	216.677	-4.2992	-78.14	186.916	21.0439	-38.2382	159.36	38.8375	-40.0192	153.719	59.6898	-4.4084	171.864	13.4905	-21.4191	144.711	33.9283	-18.6528	140.082	55.6332	5.80373	164.557	1.49108	1.66665	145.83	25.9725	0.320015	152.857	51.7501	17.4571	210.573	6.96693	31.4224	216.569	17.3173	63.522	231.504	36.2592	33.4409	
102	0.85	211.637	72.0902	29.8256	185.034	82.1244	3.76925	166.562	77.1267	-21.8871	147.458	65.4288	-30.6125	213.343	23.5849	-36.414	207.497	10.6555	-56.5083	200.865	-6.191	-76.5639	179.103	19.1519	-34.7918	148.164	39.8164	-33.115	149.382	57.6485	4.29396	163.315	10.557	-15.4467	138.462	34.5744	-13.3714	136.889	55.8438	11.9184	154.457	2.37278	3.33812	139.05	25.7075	5.51343	148.195	50.026	22.9585	206.939	2.9349	25.7528	216.056	11.8022	64.0484	228.556	31.9101	32.2451	
103	0.858333	210.932	73.5501	30.2786	181.731	80.7193	6.75984	162.404	75.3653	-14.7744	138.989	62.7687	-29.1685	201.51	19.7823	-38.3377	195.341	10.291	-61.0337	187.973	-4.15179	-80.1984	168.49	18.2889	-31.0707	141.866	43.1309	-28.2277	146.123	60.0897	5.14029	154.094	13.155	-14.2287	131.685	34.4183	-6.70985	133.415	54.2903	19.3585	146.111	1.47996	7.6362	133.492	25.7114	8.89887	144.85	50.7387	26.7947	201.291	-0.6257	27.2998	215.391	9.7432	61.0022	227.716	32.8765	29.0188	
104	0.866667	206.818	68.8343	33.2502	177.851	83.3481	6.64058	156.969	75.1479	-11.9713	134.913	65.378	-20.9631	197	25.0756	-38.9642	186.783	13.053	-61.6389	174.101	-3.0167	-77.2281	161.751	24.2903	-32.8596	134.013	43.014	-23.0684	141.584	57.8362	12.0664	146.794	13.0742	-10.4438	126.25	39.919	-2.20982	130.784	54.2244	27.5525	143.197	0.991396	10.6131	127.785	27.1822	15.5338	146.487	51.9397	33.4711	198.881	-0.13378	29.2704	211.576	7.73776	61.8638	220.423	29.0936	30.6294	
105	0.875	204.846	68.9941	32.3669	173.541	83.9759	10.8222	149.988	79.018	-9.41124	127.337	64.9743	-16.6673	187.694	26.3544	-39.9673	176.47	18.0597	-59.3194	163.863	4.98954	-76.0329	154.444	25.7241	-28.8373	128.96	44.7203	-19.8542	140.473	59.0224	16.6809	140.555	18.4611	-9.33159	122.093	43.0794	3.06989	127.878	56.9337	28.922	137.806	3.7318	12.8322	126.297	32.1327	20.5401	143.001	50.3515	37.681	192.822	-0.00232227	25.8102	210.665	7.20924	57.9073	217.307	30.8165	25.7888	
106	0.883333	202.052	72.9998	33.3725	169.29	86.2725	15.0482	144.406	80.4094	-4.22023	122.034	69.2589	-8.39114	177.717	27.9385	-37.1072	166.088	20.5341	-54.8543	151.199	8.35038	-75.7227	145.072	27.6615	-25.227	121.591	49.5971	-11.4124	140.904	59.1539	24.3589	134.796	20.2826	-6.46227	116.936	42.9897	7.51335	126.37	58.4288	33.2021	132.664	3.97419	17.3364	119.91	32.6479	28.5857	136.927	49.5084	45.0263	187.102	-3.386	26.1943	205.613	2.80197	59.0757	212.949	29.0752	24.4812	
107	0.891667	197.713	73.1028	36.0078	163.629	83.0262	19.3152	138.589	80.9513	0.697787	113.769	71.1747	-4.68589	172.857	33.0814	-36.8273	158.555	27.0735	-58.9186	139.393	15.1525	-77.0862	138.415	33.8065	-24.3967	118.162	54.8952	-7.5056	135.213	57.9326	26.703	129.748	23.4114	-2.5933	110.395	46.1269	17.2405	125.079	59.793	39.6016	124.916	8.99179	19.4904	115.074	33.43	28.8523	138.075	52.8831	46.0145	181.282	-0.850269	26.4803	202.282	4.58613	53.6707	209.147	30.533	26.0985	
108	0.9	194.138	71.1333	39.1946	159.63	87.9517	20.9675	134.157	89.2777	6.14793	110.039	73.4601	1.77907	166.126	37.6309	-33.5064	148.396	31.2233	-56.7114	130.445	23.8772	-74.5245	137.675	37.0349	-19.901	111.597	56.1518	-1.27627	135.772	62.6899	29.3573	121.834	28.6863	1.31103	106.595	49.5711	22.1212	123.711	60.9085	49.308	119.062	14.6685	21.5249	112.829	37.1058	32.0652	134.687	54.7882	52.1533	176.195	1.4477	27.7665	199.837	6.23454	52.6302	206.005	30.7936	25.3334	
109	0.908333	192.857	74.1626	39.6246	159.881	89.7255	27.2639	130.805	90.486	10.0605	106.724	77.4052	6.7667	161.578	44.0662	-31.3591	143.397	39.1865	-50.7282	121.779	30.2231	-70.9583	126.233	41.0967	-16.1941	110.539	64.6655	1.47085	132.151	64.038	34.1576	116.689	29.8128	6.08561	103.034	51.7454	24.6182	120.75	63.5477	50.9664	116.736	17.5769	21.7819	109.633	41.9307	38.046	133.909	55.6368	52.5454	172.37	4.6834	26.8291	194.821	3.33562	53.7139	200.214	32.6026	28.3622	
110	0.916667	188.997	75.7483	38.1149	155.326	93.641	29.8368	129.94	98.412	16.2845	100.448	85.524	9.92609	153.35	45.4852	-27.5391	133.032	43.4899	-49.5248	115.389	40.1225	-66.9361	126.019	47.3935	-15.1915	105.992	68.8764	9.79978	132.025	67.8767	37.8281	114.445	33.6329	7.59851	102.233	61.9913	28.5907	118.732	68.0948	51.3645	111.178	20.5226	24.8196	107.41	45.5842	38.2138	130.347	58.9034	58.1802	167.371	6.21233	28.122	191.01	6.75341	55.8951	196.73	33.5815	24.8727	
111	0.925	185.193	74.3176	41.2007	153.919	94.9719	34.2468	128.585	101.74	21.3379	99.8927	91.0286	16.4669	148.034	50.4823	-28.172	128.328	49.7828	-48.2732	108.355	48.0972	-64.7447	119.383	50.5301	-11.923	102.789	74.5078	8.18402	132.24	71.8993	39.7603	108.514	38.4798	10.1071	99.6315	64.6394	30.1536	119.348	71.0296	57.008	109.976	23.9118	25.9861	103.595	48.8492	41.664	126.598	60.7155	58.1287	163.24	11.9355	23.1492	184.907	4.94886	53.4021	195.282	35.4699	27.8773	
112	0.933333	184.506	76.2817	41.802	151.643	95.6633	33.9971	126.719	103.582	24.3261	96.6272	94.6021	20.4816	145.507	57.6274	-27.4016	123.083	54.8906	-46.6111	104.783	53.6065	-59.3089	114.72	60.5533	-10.4081	99.3963	77.8202	12.0562	130.076	77.808	40.3598	105.33	46.7542	9.1675	96.615	70.4633	33.315	118.255	73.8703	59.7276	103.683	27.9862	28.8218	99.1469	53.9171	46.3918	127.365	63.2178	58.8718	157.423	10.7875	23.0987	181.202	6.71181	51.5052	188.436	37.4016	26.9802	
113	0.941667	185.524	79.6984	44.1769	153.219	104.168	38.8117	124.081	109.237	24.1653	96.5012	101.505	24.1128	142.345	60.16	-26.5884	125.176	64.2403	-44.9928	99.7198	59.5889	-62.1207	112.179	59.903	-7.63601	99.619	83.3027	18.5171	125.947	80.2955	41.2344	103.36	51.9855	10.1002	92.2181	72.442	35.4831	116.621	79.0119	60.1805	98.2791	35.0188	29.255	99.4	60.4477	43.8356	122.964	68.1493	59.5117	152.955	16.1288	23.0324	178.437	10.5447	53.7285	186.918	39.4435	28.626	
114	0.95	182.404	80.8669	43.4078	153.499	104.416	40.0145	127.358	110.369	29.3535	96.8146	103.736	24.1755	141.441	67.981	-27.8235	121.665	71.3382	-46.577	100.13	70.6097	-62.0664	108.924	67.1656	-8.62083	100.367	90.7729	13.61	127.565	84.6889	40.4106	101.357	58.6981	8.79569	93.0425	81.1307	35.9952	111.684	82.6647	58.5733	95.265	38.0853	27.9226	95.6664	65.5399	44.4925	120.316	72.1329	59.3051	151.284	16.7927	26.1299	173.878	12.411	47.8712	184.947	41.9035	28.7037	
115	0.958333	184.487	81.8691	47.5424	154.56	110.081	41.247	128.449	118.307	30.4887	99.585	108.967	27.4052	141.281	71.4308	-26.1015	123.29	80.007	-47.6042	103.168	86.0489	-66.0736	111.575	75.1101	-9.98648	100.842	96.7585	18.9552	132.717	87.3468	40.9266	100.014	59.9859	10.3401	93.5475	87.4888	32.036	113.086	86.6513	58.7197	94.959	47.2573	25.3966	96.069	71.7459	41.4004	121.229	77.4153	55.3288	147.965	21.8915	26.073	169.785	14.4376	51.1119	180.619	39.829	25.9311	
116	0.966667	180.786	80.5801	44.9553	153.744	111.621	40.7191	127.732	123.567	29.624	101.203	117.643	27.9426	142.228	78.1576	-27.282	126.137	90.1036	-49.9764	103.607	94.9643	-65.8979	112.102	83.6153	-10.5854	102.115	101.93	18.4858	129.173	88.6048	41.3548	98.4994	71.2928	9.13308	92.4011	92.8099	33.0426	112.985	91.424	56.7079	93.8623	54.394	22.5228	91.2993	76.3083	38.5664	121.769	80.2234	53.9295	143.829	27.4979	21.2012	168.675	14.8711	50.7896	182.049	42.9796	27.1025	
117	0.975	179.21	82.1599	45.874	155.804	115.076	41.785	129.372	122.089	29.3224	99.1517	123.312	24.6471	145.021	87.175	-31.2722	130.639	98.0013	-48.9275	110.273	105.568	-66.5378	112.769	88.1189	-10.7801	103.218	109.324	11.8636	129.144	93.1095	40.4565	97.0021	74.8595	8.30179	93.9795	97.9867	31.4635	117.502	95.9787	57.463	89.2921	60.4461	23.5114	91.0939	82.2354	38.105	122.782	82.8452	54.4822	141.976	31.3791	20.3095	160.153	16.4996	51.4868	175.947	46.5461	23.9097	
118	0.983333	182.152	84.8908	46.9477	154.385	115.34	37.8834	132.385	128.489	28.7187	102.915	127.61	21.6168	148.395	90.1307	-28.704	135.173	103.017	-48.5713	117.523	114.243	-67.6566	116.137	91.3015	-11.2658	104.763	114.264	12.4702	126.875	94.4077	40.7212	95.7726	82.3864	7.01505	94.7989	103.757	33.8306	116.82	101.241	55.819	91.3992	62.2923	20.6622	92.8642	87.719	41.873	120.183	86.9484	53.0998	140.034	31.8505	20.657	156.89	18.9364	49.2534	174.577	46.5787	22.6416	
119	0.991667	179.464	87.9055	46.0798	155.619	119.653	38.4398	133.003	130.058	26.9084	105.134	132.581	21.2822	150.918	94.2376	-28.9491	135.187	106.635	-50.4121	120.845	118.161	-68.2533	114.742	98.8191	-13.4909	106.085	118.781	13.199	124.442	99.0229	39.2602	100.957	85.9653	2.82772	94.9991	108.548	31.0745	114.019	105.183	52.407	89.5021	65.6927	18.9598	94.3387	92.7166	37.0706	121.201	89.7563	51.7927	139.914	37.8128	20.4488	156.798	23.9637	44.521	175.206	52.5508	24.0054	
120	1	180.852	90.129	47.1809	156.57	124.103	36.6772	132.879	133.7	25.3565	106.786	137.13	19.5793	148.787	98.3187	-32.9797	140.05	111.287	-51.2452	124.292	120.949	-68.5199	117.715	104.49	-14.3738	105.424	121.894	9.85955	126.385	103.395	39.7887	100.659	89.6787	1.44749	93.4623	111.837	26.1271	111.26	106.951	53.0961	89.5188	70.617	16.7866	90.7321	95.6537	33.3071	120.534	92.465	51.5076	138.329	42.6107	15.4233	157.136	25.1116	46.575	174.506	52.4033	23.1076	
121	1.00833	180.414	91.8065	47.1539	159.356	124.005	42.7366	133.866	136.907	24.3347	108.13	141.404	18.9358	151.056	99.2745	-29.7326	142.211	116.46	-52.3226	126.993	125.974	-71.7459	117.326	101.547	-14.2768	107.085	126.2	9.06148	127.405	103.661	39.5279	98.8647	91.7093	0.5286	94.7189	115.044	27.3476	115.271	110.692	52.4506	89.5592	76.7525	15.2022	92.9325	100.123	30.9041	119.591	95.1998	52.0206	136.95	43.5777	16.0845	150.716	27.6014	45.9086	169.626	54.0985	24.1085	
122	1.01667	180.875	93.7647	46.5219	159.644	127.465	41.3067	136.196	139.05	25.9966	109.559	140.418	17.2562	153.201	104.791	-31.8384	143.378	118.988	-52.4594	132.542	129.087	-67.7328	119.854	105.422	-15.3526	106.859	127.48	8.81639	128.471	109.374	39.0159	98.7521	96.8085	-0.272589	95.908	119.835	25.2907	113.684	111.121	52.7873	91.6138	83.605	12.831	92.7342	103.031	29.0798	118.107	94.4106	52.5262	133.968	44.4396	14.4724	149.211	27.3513	47.9883	174.741	55.625	26.0898	
123	1.025	180.832	94.0245	48.437	158.436	130.364	39.2858	137.172	140.012	27.9294	107.103	148.281	19.7358	154.306	106.633	-31.5268	145.936	120.632	-50.2904	129.723	133.073	-72.7982	117.397	109.014	-15.0332	108.982	131.251	11.1114	128.43	113.067	38.2716	98.8045	101.656	-1.48411	97.1073	122.616	24.5394	112.626	113.078	50.5155	88.2282	81.3285	12.0949	92.1495	105.231	34.1022	117.343	97.8872	52.4929	132.713	45.8649	15.1374	149.688	29.1578	44.9534	172.109	58.0209	25.6208	
124	1.03333	176.694	94.1561	46.174	158.284	128.02	40.9454	134.572	143.515	27.5736	107.485	145.531	20.3211	152.667	109.39	-33.7196	143.717	123.089	-51.7589	132.34	136.328	-70.9094	118.232	115.44	-15.9492	105.856	132.264	8.57016	126.603	111.512	38.6693	97.3187	101.196	-0.295007	93.7627	122.929	25.1431	114.711	114.517	51.2478	85.5491	86.4087	12.8204	91.3027	106.41	33.8083	116.218	99.2436	49.4284	132.867	50.6269	13.9106	151.148	32.8809	43.7467	171.955	60.6515	23.5969	
